# This file uses centimeters as units for non-parametric coordinates.

mtllib Cañon.mtl
g default
v -0.172139 0.118216 3.140309
v -0.065751 0.191278 3.140309
v 0.065751 0.191278 3.140309
v 0.172139 0.118216 3.140309
v 0.212776 -0.000000 3.140309
v 0.172139 -0.118216 3.140309
v 0.065751 -0.191278 3.140309
v -0.065751 -0.191278 3.140309
v -0.172139 -0.118216 3.140309
v -0.212776 -0.000000 3.140309
v -0.172139 0.118216 1.086973
v -0.065751 0.191278 1.086973
v 0.065751 0.191278 1.086973
v 0.172139 0.118216 1.086973
v 0.212776 -0.000000 1.086973
v 0.172139 -0.118216 1.086973
v 0.065751 -0.191278 1.086973
v -0.065751 -0.191278 1.086973
v -0.172139 -0.118216 1.086973
v -0.212776 0.000000 1.086973
v -0.000000 -0.000000 3.140309
v -0.000000 0.000000 1.086973
vt 0.789526 0.161802
vt 0.804926 0.161802
vt 0.804926 0.393379
vt 0.789526 0.393379
vt 0.820326 0.161802
vt 0.820326 0.393379
vt 0.835726 0.161802
vt 0.835726 0.393379
vt 0.851126 0.161802
vt 0.851126 0.393379
vt 0.866526 0.161802
vt 0.866526 0.393379
vt 0.881926 0.161802
vt 0.881926 0.393379
vt 0.897326 0.161802
vt 0.897326 0.393379
vt 0.912725 0.161802
vt 0.912725 0.393379
vt 0.928125 0.161802
vt 0.928125 0.393379
vt 0.943525 0.161802
vt 0.943525 0.393379
vt 0.467085 0.658053
vt 0.502050 0.609928
vt 0.554773 0.687796
vt 0.467085 0.717538
vt 0.502050 0.765663
vt 0.558623 0.784045
vt 0.615197 0.765663
vt 0.650162 0.717538
vt 0.650162 0.658053
vt 0.615197 0.609928
vt 0.558623 0.591546
vt 0.150104 0.627312
vt 0.185069 0.675436
vt 0.089681 0.705179
vt 0.185069 0.734922
vt 0.150104 0.783046
vt 0.093531 0.801428
vt 0.036957 0.783046
vt 0.001992 0.734922
vt 0.001992 0.675436
vt 0.036957 0.627312
vt 0.093531 0.608930
vn -0.566107 0.824332 0.000000
vn -0.566107 0.824332 0.000000
vn -0.566107 0.824332 0.000000
vn -0.566107 0.824332 0.000000
vn 0.000000 1.000000 0.000000
vn 0.000000 1.000000 0.000000
vn 0.000000 1.000000 0.000000
vn 0.000000 1.000000 0.000000
vn 0.566107 0.824332 0.000000
vn 0.566107 0.824332 0.000000
vn 0.566107 0.824332 0.000000
vn 0.566107 0.824332 0.000000
vn 0.945687 0.325078 0.000000
vn 0.945687 0.325078 0.000000
vn 0.945687 0.325078 0.000000
vn 0.945687 0.325078 0.000000
vn 0.945687 -0.325078 0.000000
vn 0.945687 -0.325078 0.000000
vn 0.945687 -0.325078 0.000000
vn 0.945687 -0.325078 0.000000
vn 0.566107 -0.824332 0.000000
vn 0.566107 -0.824332 0.000000
vn 0.566107 -0.824332 0.000000
vn 0.566107 -0.824332 0.000000
vn -0.000000 -1.000000 0.000000
vn -0.000000 -1.000000 0.000000
vn -0.000000 -1.000000 0.000000
vn -0.000000 -1.000000 0.000000
vn -0.566107 -0.824332 0.000000
vn -0.566107 -0.824332 0.000000
vn -0.566107 -0.824332 0.000000
vn -0.566107 -0.824332 0.000000
vn -0.945687 -0.325078 0.000000
vn -0.945687 -0.325078 0.000000
vn -0.945687 -0.325078 0.000000
vn -0.945687 -0.325078 0.000000
vn -0.945687 0.325078 0.000000
vn -0.945687 0.325078 0.000000
vn -0.945687 0.325078 0.000000
vn -0.945687 0.325078 0.000000
vn 0.000000 0.000000 1.000000
vn 0.000000 0.000000 1.000000
vn 0.000000 0.000000 1.000000
vn -0.000001 0.000000 1.000000
vn -0.000001 0.000000 1.000000
vn 0.000001 0.000000 1.000000
vn 0.000001 0.000000 1.000000
vn 0.000000 0.000000 1.000000
vn 0.000001 0.000000 1.000000
vn 0.000001 0.000000 1.000000
vn 0.000000 0.000000 1.000000
vn 0.000000 0.000000 -1.000000
vn -0.000001 0.000000 -1.000000
vn 0.000000 0.000000 -1.000000
vn 0.000000 0.000000 -1.000000
vn 0.000001 0.000000 -1.000000
vn -0.000000 0.000000 -1.000000
vn 0.000000 0.000000 -1.000000
vn 0.000001 0.000000 -1.000000
vn 0.000000 0.000000 -1.000000
vn 0.000000 0.000000 -1.000000
vn 0.000000 0.000000 -1.000000
s off
g polySurface2 pCube2
usemtl lambert4SG
f 1/1/1 2/2/2 12/3/3 11/4/4
f 2/2/5 3/5/6 13/6/7 12/3/8
f 3/5/9 4/7/10 14/8/11 13/6/12
f 4/7/13 5/9/14 15/10/15 14/8/16
f 5/9/17 6/11/18 16/12/19 15/10/20
f 6/11/21 7/13/22 17/14/23 16/12/24
f 7/13/25 8/15/26 18/16/27 17/14/28
f 8/15/29 9/17/30 19/18/31 18/16/32
f 9/17/33 10/19/34 20/20/35 19/18/36
f 10/19/37 1/21/38 11/22/39 20/20/40
s 1
f 2/23/41 1/24/42 21/25/43
f 3/26/44 2/23/41 21/25/43
f 4/27/45 3/26/44 21/25/43
f 5/28/46 4/27/45 21/25/43
f 6/29/47 5/28/46 21/25/43
f 7/30/48 6/29/47 21/25/43
f 8/31/49 7/30/48 21/25/43
f 9/32/50 8/31/49 21/25/43
f 10/33/51 9/32/50 21/25/43
f 1/24/42 10/33/51 21/25/43
s 2
f 11/34/52 12/35/53 22/36/54
f 12/35/53 13/37/55 22/36/54
f 13/37/55 14/38/56 22/36/54
f 14/38/56 15/39/57 22/36/54
f 15/39/57 16/40/58 22/36/54
f 16/40/58 17/41/59 22/36/54
f 17/41/59 18/42/60 22/36/54
f 18/42/60 19/43/61 22/36/54
f 19/43/61 20/44/62 22/36/54
f 20/44/62 11/34/52 22/36/54
g default
v -0.218074 0.149761 1.122324
v -0.083297 0.242319 1.122324
v 0.083297 0.242319 1.122324
v 0.218074 0.149761 1.122324
v 0.269554 -0.000000 1.122324
v 0.218074 -0.149761 1.122324
v 0.083297 -0.242319 1.122324
v -0.083297 -0.242319 1.122324
v -0.218074 -0.149761 1.122324
v -0.269554 -0.000000 1.122324
v -0.218074 0.149761 0.793921
v -0.083297 0.242319 0.793921
v 0.083297 0.242319 0.793921
v 0.218074 0.149761 0.793921
v 0.269554 -0.000000 0.793921
v 0.218074 -0.149761 0.793921
v 0.083297 -0.242319 0.793921
v -0.083297 -0.242319 0.793921
v -0.218074 -0.149761 0.793921
v -0.269554 0.000000 0.793921
v -0.000000 -0.000000 1.122324
v -0.000000 0.000000 0.793921
vt 0.322476 0.163756
vt 0.337876 0.163756
vt 0.337876 0.395333
vt 0.322476 0.395333
vt 0.353276 0.163756
vt 0.353276 0.395333
vt 0.368676 0.163756
vt 0.368676 0.395333
vt 0.384076 0.163756
vt 0.384076 0.395333
vt 0.399476 0.163756
vt 0.399476 0.395333
vt 0.414876 0.163756
vt 0.414876 0.395333
vt 0.430275 0.163756
vt 0.430275 0.395333
vt 0.445675 0.163756
vt 0.445675 0.395333
vt 0.461075 0.163756
vt 0.461075 0.395333
vt 0.476475 0.163756
vt 0.476475 0.395333
vt 0.654686 0.693228
vt 0.689651 0.645103
vt 0.742374 0.722971
vt 0.654686 0.752713
vt 0.689651 0.800838
vt 0.746224 0.819220
vt 0.802798 0.800838
vt 0.837763 0.752713
vt 0.837763 0.693228
vt 0.802798 0.645103
vt 0.746224 0.626721
vt 0.339659 0.652716
vt 0.374624 0.700841
vt 0.279235 0.730583
vt 0.374624 0.760326
vt 0.339659 0.808451
vt 0.283085 0.826833
vt 0.226511 0.808451
vt 0.191547 0.760326
vt 0.191547 0.700841
vt 0.226511 0.652716
vt 0.283085 0.634334
vn -0.566107 0.824332 0.000000
vn -0.566107 0.824332 0.000000
vn -0.566107 0.824332 0.000000
vn -0.566107 0.824332 0.000000
vn 0.000000 1.000000 0.000000
vn 0.000000 1.000000 0.000000
vn 0.000000 1.000000 0.000000
vn 0.000000 1.000000 0.000000
vn 0.566107 0.824332 0.000000
vn 0.566107 0.824332 0.000000
vn 0.566107 0.824332 0.000000
vn 0.566107 0.824332 0.000000
vn 0.945687 0.325078 0.000000
vn 0.945687 0.325078 0.000000
vn 0.945687 0.325078 0.000000
vn 0.945687 0.325078 0.000000
vn 0.945687 -0.325078 0.000000
vn 0.945687 -0.325078 0.000000
vn 0.945687 -0.325078 0.000000
vn 0.945687 -0.325078 0.000000
vn 0.566107 -0.824332 0.000000
vn 0.566107 -0.824332 0.000000
vn 0.566107 -0.824332 0.000000
vn 0.566107 -0.824332 0.000000
vn -0.000000 -1.000000 0.000000
vn -0.000000 -1.000000 0.000000
vn -0.000000 -1.000000 0.000000
vn -0.000000 -1.000000 0.000000
vn -0.566107 -0.824332 0.000000
vn -0.566107 -0.824332 0.000000
vn -0.566107 -0.824332 0.000000
vn -0.566107 -0.824332 0.000000
vn -0.945687 -0.325078 0.000000
vn -0.945687 -0.325078 0.000000
vn -0.945687 -0.325078 0.000000
vn -0.945687 -0.325078 0.000000
vn -0.945687 0.325078 0.000000
vn -0.945687 0.325078 0.000000
vn -0.945687 0.325078 0.000000
vn -0.945687 0.325078 0.000000
vn 0.000000 0.000000 1.000000
vn 0.000000 0.000000 1.000000
vn 0.000000 0.000000 1.000000
vn 0.000000 0.000000 1.000000
vn 0.000000 0.000000 1.000000
vn 0.000000 0.000000 1.000000
vn 0.000000 0.000000 1.000000
vn 0.000001 0.000000 1.000000
vn 0.000001 0.000000 1.000000
vn 0.000000 0.000000 1.000000
vn 0.000000 0.000000 1.000000
vn 0.000000 0.000000 -1.000000
vn 0.000000 0.000000 -1.000000
vn 0.000000 0.000000 -1.000000
vn 0.000000 0.000000 -1.000000
vn 0.000000 0.000000 -1.000000
vn 0.000000 0.000000 -1.000000
vn -0.000000 0.000000 -1.000000
vn -0.000000 0.000000 -1.000000
vn 0.000000 0.000000 -1.000000
vn 0.000000 0.000000 -1.000000
vn 0.000000 0.000000 -1.000000
s off
g pCube2 pasted__polySurface2
usemtl lambert4SG
f 23/45/63 24/46/64 34/47/65 33/48/66
f 24/46/67 25/49/68 35/50/69 34/47/70
f 25/49/71 26/51/72 36/52/73 35/50/74
f 26/51/75 27/53/76 37/54/77 36/52/78
f 27/53/79 28/55/80 38/56/81 37/54/82
f 28/55/83 29/57/84 39/58/85 38/56/86
f 29/57/87 30/59/88 40/60/89 39/58/90
f 30/59/91 31/61/92 41/62/93 40/60/94
f 31/61/95 32/63/96 42/64/97 41/62/98
f 32/63/99 23/65/100 33/66/101 42/64/102
s 1
f 24/67/103 23/68/104 43/69/105
f 25/70/106 24/67/103 43/69/105
f 26/71/107 25/70/106 43/69/105
f 27/72/108 26/71/107 43/69/105
f 28/73/109 27/72/108 43/69/105
f 29/74/110 28/73/109 43/69/105
f 30/75/111 29/74/110 43/69/105
f 31/76/112 30/75/111 43/69/105
f 32/77/113 31/76/112 43/69/105
f 23/68/104 32/77/113 43/69/105
s 2
f 33/78/114 34/79/115 44/80/116
f 34/79/115 35/81/117 44/80/116
f 35/81/117 36/82/118 44/80/116
f 36/82/118 37/83/119 44/80/116
f 37/83/119 38/84/120 44/80/116
f 38/84/120 39/85/121 44/80/116
f 39/85/121 40/86/122 44/80/116
f 40/86/122 41/87/123 44/80/116
f 41/87/123 42/88/124 44/80/116
f 42/88/124 33/78/114 44/80/116
g default
v 0.044036 0.186024 2.983369
v -0.044036 0.186024 2.983369
v 0.023563 0.309462 2.983369
v -0.023563 0.309462 2.983369
v 0.023563 0.371177 2.703902
v -0.023563 0.371177 2.703902
v 0.044036 0.186024 2.703902
v -0.044036 0.186024 2.703902
vt 0.784854 0.001959
vt 0.784854 0.155957
vt 0.630855 0.155957
vt 0.630855 0.001959
vt 0.784854 0.309956
vt 0.630855 0.309956
vt 0.784854 0.463955
vt 0.630855 0.463955
vt 0.784854 0.617954
vt 0.630855 0.617954
vt 0.476856 0.155957
vt 0.476856 0.001959
vt 0.938852 0.001959
vt 0.938852 0.155957
vn 0.000000 0.000000 1.000000
vn 0.000000 0.000000 1.000000
vn 0.000000 0.000000 1.000000
vn 0.000000 0.000000 1.000000
vn 0.000000 0.976474 0.215636
vn 0.000000 0.976474 0.215636
vn 0.000000 0.976474 0.215636
vn 0.000000 0.976474 0.215636
vn 0.000000 0.000000 -1.000000
vn 0.000000 0.000000 -1.000000
vn 0.000000 0.000000 -1.000000
vn 0.000000 0.000000 -1.000000
vn 0.000000 -1.000000 0.000000
vn 0.000000 -1.000000 0.000000
vn 0.000000 -1.000000 0.000000
vn 0.000000 -1.000000 0.000000
vn -0.991207 0.131523 0.014522
vn -0.991207 0.131524 0.014522
vn -0.991207 0.131524 0.014522
vn -0.991207 0.131523 0.014522
vn 0.991207 0.131523 0.014522
vn 0.991207 0.131523 0.014522
vn 0.991207 0.131523 0.014522
vn 0.991207 0.131523 0.014522
s off
g pCube2 polySurface1
usemtl lambert4SG
f 45/89/125 47/90/126 48/91/127 46/92/128
f 47/90/129 49/93/130 50/94/131 48/91/132
f 49/93/133 51/95/134 52/96/135 50/94/136
f 51/95/137 45/97/138 46/98/139 52/96/140
f 46/92/141 48/91/142 50/99/143 52/100/144
f 51/101/145 49/102/146 47/90/147 45/89/148
g default
v -0.491008 0.143762 -0.043130
v -0.350557 0.240216 -0.043130
v -0.176950 0.240216 -0.043130
v -0.036499 0.143762 -0.043130
v 0.017149 -0.012305 -0.043130
v -0.036499 -0.168371 -0.043130
v -0.176950 -0.264825 -0.043130
v -0.350557 -0.264825 -0.043130
v -0.491008 -0.168371 -0.043130
v -0.544655 -0.012305 -0.043130
v -0.491008 0.143762 -1.392539
v -0.350557 0.240216 -1.392539
v -0.176950 0.240216 -1.392539
v -0.036499 0.143762 -1.392539
v 0.017149 -0.012305 -1.392539
v -0.036499 -0.168371 -1.392539
v -0.176950 -0.264825 -1.392539
v -0.350557 -0.264825 -1.392539
v -0.491008 -0.168371 -1.392539
v -0.544655 -0.012305 -1.392539
v -0.263753 -0.012305 -0.043130
v -0.263753 -0.012305 -1.392539
vt 0.789526 0.400211
vt 0.804926 0.400211
vt 0.804926 0.631788
vt 0.789526 0.631788
vt 0.820326 0.400211
vt 0.820326 0.631788
vt 0.835726 0.400211
vt 0.835726 0.631788
vt 0.851126 0.400211
vt 0.851126 0.631788
vt 0.866526 0.400211
vt 0.866526 0.631788
vt 0.881926 0.400211
vt 0.881926 0.631788
vt 0.897326 0.400211
vt 0.897326 0.631788
vt 0.912725 0.400211
vt 0.912725 0.631788
vt 0.928125 0.400211
vt 0.928125 0.631788
vt 0.943525 0.400211
vt 0.943525 0.631788
vt 0.814931 0.794845
vt 0.849896 0.746720
vt 0.902620 0.824588
vt 0.814931 0.854330
vt 0.849896 0.902455
vt 0.906470 0.920837
vt 0.963044 0.902455
vt 0.998008 0.854330
vt 0.998008 0.794845
vt 0.963044 0.746720
vt 0.906470 0.728338
vt 0.494039 0.766058
vt 0.529003 0.814183
vt 0.433615 0.843925
vt 0.529003 0.873668
vt 0.494039 0.921793
vt 0.437465 0.940175
vt 0.380891 0.921793
vt 0.345926 0.873668
vt 0.345926 0.814183
vt 0.380891 0.766058
vt 0.437465 0.747676
vn -0.566107 0.824332 0.000000
vn -0.566107 0.824332 0.000000
vn -0.566107 0.824332 0.000000
vn -0.566107 0.824332 0.000000
vn 0.000000 1.000000 0.000000
vn 0.000000 1.000000 0.000000
vn 0.000000 1.000000 0.000000
vn 0.000000 1.000000 0.000000
vn 0.566107 0.824332 0.000000
vn 0.566107 0.824332 0.000000
vn 0.566107 0.824332 0.000000
vn 0.566107 0.824332 0.000000
vn 0.945687 0.325078 0.000000
vn 0.945687 0.325078 0.000000
vn 0.945687 0.325078 0.000000
vn 0.945687 0.325078 0.000000
vn 0.945687 -0.325078 0.000000
vn 0.945687 -0.325078 0.000000
vn 0.945687 -0.325078 0.000000
vn 0.945687 -0.325078 0.000000
vn 0.566107 -0.824332 0.000000
vn 0.566107 -0.824332 0.000000
vn 0.566107 -0.824332 0.000000
vn 0.566107 -0.824332 0.000000
vn 0.000000 -1.000000 0.000000
vn 0.000000 -1.000000 0.000000
vn 0.000000 -1.000000 0.000000
vn 0.000000 -1.000000 0.000000
vn -0.566107 -0.824332 0.000000
vn -0.566107 -0.824332 0.000000
vn -0.566107 -0.824332 0.000000
vn -0.566107 -0.824332 0.000000
vn -0.945687 -0.325078 0.000000
vn -0.945687 -0.325078 0.000000
vn -0.945687 -0.325078 0.000000
vn -0.945687 -0.325078 0.000000
vn -0.945687 0.325078 0.000000
vn -0.945687 0.325078 0.000000
vn -0.945687 0.325078 0.000000
vn -0.945687 0.325078 0.000000
vn 0.000000 0.000000 1.000000
vn 0.000000 0.000000 1.000000
vn 0.000000 0.000000 1.000000
vn -0.000000 0.000000 1.000000
vn -0.000000 0.000000 1.000000
vn -0.000000 0.000000 1.000000
vn 0.000000 0.000000 1.000000
vn 0.000000 0.000000 1.000000
vn 0.000000 0.000000 1.000000
vn 0.000000 0.000000 1.000000
vn 0.000000 0.000000 1.000000
vn -0.000000 0.000000 -1.000000
vn -0.000000 0.000000 -1.000000
vn -0.000000 0.000000 -1.000000
vn 0.000001 0.000000 -1.000000
vn 0.000000 0.000000 -1.000000
vn -0.000000 0.000000 -1.000000
vn 0.000000 0.000000 -1.000000
vn 0.000000 0.000000 -1.000000
vn -0.000001 0.000000 -1.000000
vn -0.000001 0.000000 -1.000000
vn 0.000000 0.000000 -1.000000
s off
g pCube2 pasted__pasted__pasted__polySurface2
usemtl lambert4SG
f 53/103/149 54/104/150 64/105/151 63/106/152
f 54/104/153 55/107/154 65/108/155 64/105/156
f 55/107/157 56/109/158 66/110/159 65/108/160
f 56/109/161 57/111/162 67/112/163 66/110/164
f 57/111/165 58/113/166 68/114/167 67/112/168
f 58/113/169 59/115/170 69/116/171 68/114/172
f 59/115/173 60/117/174 70/118/175 69/116/176
f 60/117/177 61/119/178 71/120/179 70/118/180
f 61/119/181 62/121/182 72/122/183 71/120/184
f 62/121/185 53/123/186 63/124/187 72/122/188
s 1
f 54/125/189 53/126/190 73/127/191
f 55/128/192 54/125/189 73/127/191
f 56/129/193 55/128/192 73/127/191
f 57/130/194 56/129/193 73/127/191
f 58/131/195 57/130/194 73/127/191
f 59/132/196 58/131/195 73/127/191
f 60/133/197 59/132/196 73/127/191
f 61/134/198 60/133/197 73/127/191
f 62/135/199 61/134/198 73/127/191
f 53/126/190 62/135/199 73/127/191
s 2
f 63/136/200 64/137/201 74/138/202
f 64/137/201 65/139/203 74/138/202
f 65/139/203 66/140/204 74/138/202
f 66/140/204 67/141/205 74/138/202
f 67/141/205 68/142/206 74/138/202
f 68/142/206 69/143/207 74/138/202
f 69/143/207 70/144/208 74/138/202
f 70/144/208 71/145/209 74/138/202
f 71/145/209 72/146/210 74/138/202
f 72/146/210 63/136/200 74/138/202
g default
v -0.202154 0.234094 1.131755
v 0.286713 0.102238 1.131755
v -0.202154 0.292118 1.131755
v 0.286713 0.160262 1.131755
v -0.202154 0.292118 -1.380006
v 0.286713 0.160262 -1.380006
v -0.202154 0.234094 -1.380006
v 0.286713 0.102238 -1.380006
v 0.096239 0.292118 1.131755
v 0.096239 0.292118 -1.380006
v 0.096239 0.234094 -1.380006
v 0.096239 0.234094 1.131755
vt 0.157956 0.002281
vt 0.313921 0.002281
vt 0.157956 0.158245
vt 0.313921 0.158245
vt 0.157956 0.314209
vt 0.313921 0.314209
vt 0.157956 0.470173
vt 0.313921 0.470173
vt 0.157956 0.626138
vt 0.313921 0.626138
vt 0.469885 0.002281
vt 0.469885 0.158245
vt 0.001992 0.002281
vt 0.001992 0.158245
vt 0.253153 0.158245
vt 0.253153 0.314209
vt 0.253153 0.470173
vt 0.253153 0.002281
vt 0.253153 0.626138
vn 0.000000 0.000000 1.000000
vn 0.000000 0.000000 1.000000
vn 0.000000 0.000000 1.000000
vn 0.000000 0.000000 1.000000
vn 0.000000 1.000000 0.000000
vn 0.260412 0.965498 0.000000
vn 0.260412 0.965498 0.000000
vn 0.000000 1.000000 0.000000
vn 0.000000 0.000000 -1.000000
vn -0.000000 0.000000 -1.000000
vn -0.000001 0.000000 -1.000000
vn 0.000000 0.000000 -1.000000
vn 0.000000 -1.000000 0.000000
vn -0.260412 -0.965498 0.000000
vn -0.260412 -0.965498 0.000000
vn 0.000000 -1.000000 0.000000
vn 1.000000 0.000000 0.000000
vn 1.000000 0.000000 0.000000
vn 1.000000 0.000000 0.000000
vn 1.000000 0.000000 0.000000
vn -1.000000 0.000000 0.000000
vn -1.000000 0.000000 0.000000
vn -1.000000 0.000000 0.000000
vn -1.000000 0.000000 0.000000
vn 0.569180 0.822213 0.000000
vn 0.569180 0.822213 0.000000
vn -0.000001 0.000000 -1.000000
vn -0.000001 0.000000 -1.000000
vn -0.569180 -0.822213 0.000000
vn -0.569180 -0.822213 0.000000
vn 0.000000 0.000000 1.000000
vn 0.000000 0.000000 1.000000
s 1
g pCube2 pCube3
usemtl lambert4SG
f 75/147/211 86/164/212 83/161/213 77/149/214
s 2
f 77/149/215 83/161/216 84/162/217 79/151/218
s 3
f 79/151/219 84/162/220 85/163/221 81/153/222
s 4
f 81/153/223 85/163/224 86/165/225 75/155/226
s off
f 76/148/227 82/157/228 80/158/229 78/150/230
f 81/159/231 75/147/232 77/149/233 79/160/234
s 2
f 83/161/216 78/150/235 80/152/236 84/162/217
s 3
f 85/163/221 84/162/220 80/152/237 82/154/238
s 4
f 86/165/225 85/163/224 82/154/239 76/156/240
s 1
f 83/161/213 86/164/212 76/148/241 78/150/242
g default
v -0.677511 0.069568 0.775348
v -0.421795 0.245181 0.775348
v -0.105712 0.245181 0.775348
v 0.150005 0.069568 0.775348
v 0.247680 -0.214578 0.775348
v 0.150005 -0.498725 0.775348
v -0.105712 -0.674338 0.775348
v -0.421795 -0.674338 0.775348
v -0.677511 -0.498725 0.775348
v -0.775186 -0.214578 0.775348
v -0.677511 0.069568 -0.028299
v -0.421795 0.245181 -0.028299
v -0.105712 0.245181 -0.028299
v 0.150005 0.069568 -0.028299
v 0.247680 -0.214578 -0.028299
v 0.150005 -0.498725 -0.028299
v -0.105712 -0.674338 -0.028299
v -0.421795 -0.674338 -0.028299
v -0.677511 -0.498725 -0.028299
v -0.775186 -0.214578 -0.028299
v -0.263753 -0.214578 0.775348
v -0.263753 -0.214578 -0.028299
vt 0.322476 0.402165
vt 0.337876 0.402165
vt 0.337876 0.633742
vt 0.322476 0.633742
vt 0.353276 0.402165
vt 0.353276 0.633742
vt 0.368676 0.402165
vt 0.368676 0.633742
vt 0.384076 0.402165
vt 0.384076 0.633742
vt 0.399476 0.402165
vt 0.399476 0.633742
vt 0.414876 0.402165
vt 0.414876 0.633742
vt 0.430275 0.402165
vt 0.430275 0.633742
vt 0.445675 0.402165
vt 0.445675 0.633742
vt 0.461075 0.402165
vt 0.461075 0.633742
vt 0.476475 0.402165
vt 0.476475 0.633742
vt 0.535481 0.845654
vt 0.570446 0.797529
vt 0.623169 0.875396
vt 0.535481 0.905139
vt 0.570446 0.953264
vt 0.627019 0.971645
vt 0.683593 0.953264
vt 0.718558 0.905139
vt 0.718558 0.845653
vt 0.683593 0.797529
vt 0.627019 0.779147
vt 0.212638 0.807096
vt 0.247603 0.855220
vt 0.152214 0.884963
vt 0.247603 0.914706
vt 0.212638 0.962830
vt 0.156064 0.981212
vt 0.099490 0.962830
vt 0.064526 0.914706
vt 0.064526 0.855220
vt 0.099490 0.807096
vt 0.156064 0.788714
vn -0.566107 0.824332 0.000000
vn -0.566107 0.824332 0.000000
vn -0.566107 0.824332 0.000000
vn -0.566107 0.824332 0.000000
vn 0.000000 1.000000 0.000000
vn 0.000000 1.000000 0.000000
vn 0.000000 1.000000 0.000000
vn 0.000000 1.000000 0.000000
vn 0.566107 0.824332 0.000000
vn 0.566107 0.824332 0.000000
vn 0.566107 0.824332 0.000000
vn 0.566107 0.824332 0.000000
vn 0.945687 0.325078 0.000000
vn 0.945687 0.325078 0.000000
vn 0.945687 0.325078 0.000000
vn 0.945687 0.325078 0.000000
vn 0.945687 -0.325078 0.000000
vn 0.945687 -0.325078 0.000000
vn 0.945687 -0.325078 0.000000
vn 0.945687 -0.325078 0.000000
vn 0.566107 -0.824332 0.000000
vn 0.566107 -0.824332 0.000000
vn 0.566107 -0.824332 0.000000
vn 0.566107 -0.824332 0.000000
vn -0.000000 -1.000000 0.000000
vn -0.000000 -1.000000 0.000000
vn -0.000000 -1.000000 0.000000
vn -0.000000 -1.000000 0.000000
vn -0.566107 -0.824332 0.000000
vn -0.566107 -0.824332 0.000000
vn -0.566107 -0.824332 0.000000
vn -0.566107 -0.824332 0.000000
vn -0.945687 -0.325078 0.000000
vn -0.945687 -0.325078 0.000000
vn -0.945687 -0.325078 0.000000
vn -0.945687 -0.325078 0.000000
vn -0.945687 0.325078 0.000000
vn -0.945687 0.325078 0.000000
vn -0.945687 0.325078 0.000000
vn -0.945687 0.325078 0.000000
vn 0.000000 0.000000 1.000000
vn 0.000000 0.000000 1.000000
vn -0.000000 0.000000 1.000000
vn 0.000000 0.000000 1.000000
vn -0.000000 0.000000 1.000000
vn -0.000000 0.000000 1.000000
vn -0.000000 0.000000 1.000000
vn 0.000000 0.000000 1.000000
vn 0.000000 0.000000 1.000000
vn 0.000000 0.000000 1.000000
vn 0.000000 0.000000 1.000000
vn 0.000000 0.000000 -1.000000
vn 0.000000 0.000000 -1.000000
vn 0.000000 0.000000 -1.000000
vn -0.000000 0.000000 -1.000000
vn -0.000000 0.000000 -1.000000
vn 0.000000 0.000000 -1.000000
vn 0.000000 0.000000 -1.000000
vn 0.000000 0.000000 -1.000000
vn 0.000000 0.000000 -1.000000
vn 0.000000 0.000000 -1.000000
vn 0.000000 0.000000 -1.000000
s off
g pCube2 pasted__pasted__polySurface2
usemtl lambert4SG
f 87/166/243 88/167/244 98/168/245 97/169/246
f 88/167/247 89/170/248 99/171/249 98/168/250
f 89/170/251 90/172/252 100/173/253 99/171/254
f 90/172/255 91/174/256 101/175/257 100/173/258
f 91/174/259 92/176/260 102/177/261 101/175/262
f 92/176/263 93/178/264 103/179/265 102/177/266
f 93/178/267 94/180/268 104/181/269 103/179/270
f 94/180/271 95/182/272 105/183/273 104/181/274
f 95/182/275 96/184/276 106/185/277 105/183/278
f 96/184/279 87/186/280 97/187/281 106/185/282
s 1
f 88/188/283 87/189/284 107/190/285
f 89/191/286 88/188/283 107/190/285
f 90/192/287 89/191/286 107/190/285
f 91/193/288 90/192/287 107/190/285
f 92/194/289 91/193/288 107/190/285
f 93/195/290 92/194/289 107/190/285
f 94/196/291 93/195/290 107/190/285
f 95/197/292 94/196/291 107/190/285
f 96/198/293 95/197/292 107/190/285
f 87/189/284 96/198/293 107/190/285
s 2
f 97/199/294 98/200/295 108/201/296
f 98/200/295 99/202/297 108/201/296
f 99/202/297 100/203/298 108/201/296
f 100/203/298 101/204/299 108/201/296
f 101/204/299 102/205/300 108/201/296
f 102/205/300 103/206/301 108/201/296
f 103/206/301 104/207/302 108/201/296
f 104/207/302 105/208/303 108/201/296
f 105/208/303 106/209/304 108/201/296
f 106/209/304 97/199/294 108/201/296
