# This file uses centimeters as units for non-parametric coordinates.

mtllib Cañon.mtl
g default
v 0.023563 0.186024 2.983369
v -0.023563 0.186024 2.983369
v 0.023563 0.446747 2.983369
v -0.023563 0.446747 2.983369
v 0.023563 0.446747 2.928078
v -0.023563 0.446747 2.928078
v 0.023563 0.186024 2.928078
v -0.023563 0.186024 2.928078
v -0.172139 0.118216 3.140309
v -0.065751 0.191278 3.140309
v 0.065751 0.191278 3.140309
v 0.172139 0.118216 3.140309
v 0.212776 -0.000000 3.140309
v 0.172139 -0.118216 3.140309
v 0.065751 -0.191278 3.140309
v -0.065751 -0.191278 3.140309
v -0.172139 -0.118216 3.140309
v -0.212776 -0.000000 3.140309
v -0.172139 0.118216 -3.140309
v -0.065751 0.191278 -3.140309
v 0.065751 0.191278 -3.140309
v 0.172139 0.118216 -3.140309
v 0.212776 -0.000000 -3.140309
v 0.172139 -0.118216 -3.140309
v 0.065751 -0.191278 -3.140309
v -0.065751 -0.191278 -3.140309
v -0.172139 -0.118216 -3.140309
v -0.212776 0.000000 -3.140309
v -0.000000 -0.000000 3.140309
v -0.000000 0.000000 -3.140309
vt 0.495691 0.002616
vt 0.248842 0.002616
vt 0.495691 0.249465
vt 0.248842 0.249465
vt 0.495691 0.496315
vt 0.248842 0.496315
vt 0.495691 0.743165
vt 0.248842 0.743165
vt 0.495691 0.990014
vt 0.248842 0.990014
vt 0.001992 0.002616
vt 0.001992 0.249465
vt 0.742541 0.002616
vt 0.742541 0.249465
vt 0.747602 0.001976
vt 0.772287 0.001976
vt 0.772287 0.373178
vt 0.747602 0.373178
vt 0.796972 0.001976
vt 0.796972 0.373178
vt 0.821657 0.001976
vt 0.821657 0.373178
vt 0.846342 0.001976
vt 0.846342 0.373178
vt 0.871027 0.001976
vt 0.871027 0.373178
vt 0.895712 0.001976
vt 0.895712 0.373178
vt 0.920397 0.001976
vt 0.920397 0.373178
vt 0.945082 0.001976
vt 0.945082 0.373178
vt 0.969767 0.001976
vt 0.969767 0.373178
vt 0.994452 0.001976
vt 0.994452 0.373178
vt 0.504934 0.449736
vt 0.560980 0.372596
vt 0.645493 0.497412
vt 0.504934 0.545087
vt 0.560980 0.622228
vt 0.651664 0.651693
vt 0.742348 0.622228
vt 0.798394 0.545087
vt 0.798394 0.449736
vt 0.742348 0.372596
vt 0.651664 0.343131
vt 0.941962 0.607199
vt 0.998008 0.684339
vt 0.845107 0.732015
vt 0.998008 0.779690
vt 0.941962 0.856831
vt 0.851278 0.886296
vt 0.760594 0.856831
vt 0.704548 0.779690
vt 0.704548 0.684339
vt 0.760594 0.607199
vt 0.851278 0.577734
vn 0.000000 0.000000 1.000000
vn 0.000000 0.000000 1.000000
vn 0.000000 0.000000 1.000000
vn 0.000000 0.000000 1.000000
vn 0.000000 1.000000 0.000000
vn 0.000000 1.000000 0.000000
vn 0.000000 1.000000 0.000000
vn 0.000000 1.000000 0.000000
vn 0.000000 0.000000 -1.000000
vn 0.000000 0.000000 -1.000000
vn 0.000000 0.000000 -1.000000
vn 0.000000 0.000000 -1.000000
vn 0.000000 -1.000000 0.000000
vn 0.000000 -1.000000 0.000000
vn 0.000000 -1.000000 0.000000
vn 0.000000 -1.000000 0.000000
vn -1.000000 0.000000 0.000000
vn -1.000000 0.000000 0.000000
vn -1.000000 0.000000 0.000000
vn -1.000000 0.000000 0.000000
vn 1.000000 0.000000 0.000000
vn 1.000000 0.000000 0.000000
vn 1.000000 0.000000 0.000000
vn 1.000000 0.000000 0.000000
vn -0.566107 0.824332 0.000000
vn -0.566107 0.824332 0.000000
vn -0.566107 0.824332 0.000000
vn -0.566107 0.824332 0.000000
vn 0.000000 1.000000 0.000000
vn 0.000000 1.000000 0.000000
vn 0.000000 1.000000 0.000000
vn 0.000000 1.000000 0.000000
vn 0.566107 0.824332 0.000000
vn 0.566107 0.824332 0.000000
vn 0.566107 0.824332 0.000000
vn 0.566107 0.824332 0.000000
vn 0.945687 0.325078 0.000000
vn 0.945687 0.325078 0.000000
vn 0.945687 0.325078 0.000000
vn 0.945687 0.325078 0.000000
vn 0.945687 -0.325078 0.000000
vn 0.945687 -0.325078 0.000000
vn 0.945687 -0.325078 0.000000
vn 0.945687 -0.325078 0.000000
vn 0.566107 -0.824332 0.000000
vn 0.566107 -0.824332 0.000000
vn 0.566107 -0.824332 0.000000
vn 0.566107 -0.824332 0.000000
vn -0.000000 -1.000000 0.000000
vn -0.000000 -1.000000 0.000000
vn -0.000000 -1.000000 0.000000
vn -0.000000 -1.000000 0.000000
vn -0.566107 -0.824332 0.000000
vn -0.566107 -0.824332 0.000000
vn -0.566107 -0.824332 0.000000
vn -0.566107 -0.824332 0.000000
vn -0.945687 -0.325078 0.000000
vn -0.945687 -0.325078 0.000000
vn -0.945687 -0.325078 0.000000
vn -0.945687 -0.325078 0.000000
vn -0.945687 0.325078 0.000000
vn -0.945687 0.325078 0.000000
vn -0.945687 0.325078 0.000000
vn -0.945687 0.325078 0.000000
vn 0.000000 0.000000 1.000000
vn 0.000000 0.000000 1.000000
vn 0.000000 0.000000 1.000000
vn 0.000000 0.000000 1.000000
vn -0.000001 0.000000 1.000000
vn 0.000000 0.000000 1.000000
vn 0.000001 0.000000 1.000000
vn 0.000000 0.000000 1.000000
vn 0.000001 0.000000 1.000000
vn 0.000001 0.000000 1.000000
vn 0.000000 0.000000 1.000000
vn 0.000000 0.000000 -1.000000
vn 0.000000 0.000000 -1.000000
vn -0.000000 0.000000 -1.000000
vn 0.000000 0.000000 -1.000000
vn -0.000001 0.000000 -1.000000
vn -0.000000 0.000000 -1.000000
vn -0.000000 0.000000 -1.000000
vn -0.000001 0.000000 -1.000000
vn 0.000000 0.000000 -1.000000
vn 0.000000 0.000000 -1.000000
vn 0.000000 0.000000 -1.000000
s off
g pCube2
usemtl lambert3SG
f 1/1/1 3/3/2 4/4/3 2/2/4
f 3/3/5 5/5/6 6/6/7 4/4/8
f 5/5/9 7/7/10 8/8/11 6/6/12
f 7/7/13 1/9/14 2/10/15 8/8/16
f 2/2/17 4/4/18 6/12/19 8/11/20
f 7/13/21 5/14/22 3/3/23 1/1/24
f 9/15/25 10/16/26 20/17/27 19/18/28
f 10/16/29 11/19/30 21/20/31 20/17/32
f 11/19/33 12/21/34 22/22/35 21/20/36
f 12/21/37 13/23/38 23/24/39 22/22/40
f 13/23/41 14/25/42 24/26/43 23/24/44
f 14/25/45 15/27/46 25/28/47 24/26/48
f 15/27/49 16/29/50 26/30/51 25/28/52
f 16/29/53 17/31/54 27/32/55 26/30/56
f 17/31/57 18/33/58 28/34/59 27/32/60
f 18/33/61 9/35/62 19/36/63 28/34/64
s 1
f 10/37/65 9/38/66 29/39/67
f 11/40/68 10/37/65 29/39/67
f 12/41/69 11/40/68 29/39/67
f 13/42/70 12/41/69 29/39/67
f 14/43/71 13/42/70 29/39/67
f 15/44/72 14/43/71 29/39/67
f 16/45/73 15/44/72 29/39/67
f 17/46/74 16/45/73 29/39/67
f 18/47/75 17/46/74 29/39/67
f 9/38/66 18/47/75 29/39/67
s 2
f 19/48/76 20/49/77 30/50/78
f 20/49/77 21/51/79 30/50/78
f 21/51/79 22/52/80 30/50/78
f 22/52/80 23/53/81 30/50/78
f 23/53/81 24/54/82 30/50/78
f 24/54/82 25/55/83 30/50/78
f 25/55/83 26/56/84 30/50/78
f 26/56/84 27/57/85 30/50/78
f 27/57/85 28/58/86 30/50/78
f 28/58/86 19/48/76 30/50/78
